<svg width="1200" height="675" viewBox="0 0 1200 675" fill="none" xmlns="http://www.w3.org/2000/svg">
  <defs>
    <linearGradient id="bg" x1="0" y1="0" x2="1200" y2="675" gradientUnits="userSpaceOnUse">
      <stop stop-color="#FFFDF2"/>
      <stop offset="0.42" stop-color="#FFF1B8"/>
      <stop offset="1" stop-color="#F5E7FF"/>
    </linearGradient>
    <radialGradient id="glow" cx="0" cy="0" r="1" gradientUnits="userSpaceOnUse" gradientTransform="translate(600 312) rotate(90) scale(170)">
      <stop stop-color="#FFFDF2" stop-opacity="0.96"/>
      <stop offset="0.5" stop-color="#FFF1B8" stop-opacity="0.72"/>
      <stop offset="1" stop-color="#F5E7FF" stop-opacity="0"/>
    </radialGradient>
    <linearGradient id="bulbBody" x1="420" y1="170" x2="780" y2="500" gradientUnits="userSpaceOnUse">
      <stop stop-color="#FFFBEA"/>
      <stop offset="0.32" stop-color="#FDE68A"/>
      <stop offset="0.68" stop-color="#F59E0B"/>
      <stop offset="1" stop-color="#FB7185"/>
    </linearGradient>
    <linearGradient id="bulbBase" x1="470" y1="360" x2="730" y2="520" gradientUnits="userSpaceOnUse">
      <stop stop-color="#FFFFFF"/>
      <stop offset="1" stop-color="#E2E8F0"/>
    </linearGradient>
    <filter id="shadow" x="-40" y="-40" width="1280" height="755" filterUnits="userSpaceOnUse" color-interpolation-filters="sRGB">
      <feDropShadow dx="0" dy="18" stdDeviation="28" flood-color="#7C3AED" flood-opacity="0.12"/>
    </filter>
  </defs>

  <rect width="1200" height="675" rx="48" fill="url(#bg)"/>
  <circle cx="1028" cy="136" r="118" fill="#FFFFFF" fill-opacity="0.18"/>
  <circle cx="182" cy="532" r="166" fill="#FFFFFF" fill-opacity="0.12"/>
  <circle cx="934" cy="520" r="102" fill="#FFFFFF" fill-opacity="0.10"/>

  <g opacity="0.9">
    <path d="M250 160C290 122 338 104 394 100" stroke="#F472B6" stroke-width="8" stroke-linecap="round"/>
    <path d="M226 224C270 192 320 176 376 172" stroke="#A78BFA" stroke-width="8" stroke-linecap="round"/>
    <path d="M944 160C984 122 1032 104 1088 100" stroke="#A78BFA" stroke-width="8" stroke-linecap="round"/>
    <path d="M968 224C1012 192 1062 176 1118 172" stroke="#F472B6" stroke-width="8" stroke-linecap="round"/>
  </g>

  <circle cx="600" cy="316" r="132" fill="url(#glow)"/>
  <g filter="url(#shadow)">
    <circle cx="600" cy="316" r="112" fill="#FFFFFF" fill-opacity="0.34"/>
  </g>

  <g transform="translate(352 118)">
    <path d="M248 36C143 36 58 121 58 226C58 297 94 358 149 392V424C149 445 166 462 187 462H309C330 462 347 445 347 424V392C402 358 438 297 438 226C438 121 353 36 248 36Z" fill="url(#bulbBody)"/>
    <path d="M182 396H314V428C314 440 305 450 293 450H203C191 450 182 440 182 428V396Z" fill="url(#bulbBase)"/>
    <path d="M200 442H296" stroke="#94A3B8" stroke-width="12" stroke-linecap="round"/>
    <path d="M210 472H286" stroke="#94A3B8" stroke-width="12" stroke-linecap="round"/>
    <path d="M206 374H292" stroke="#F8FAFC" stroke-width="10" stroke-linecap="round" opacity="0.85"/>
    <path d="M248 84C174 84 114 144 114 218C114 259 131 296 159 323" stroke="#FFF9D8" stroke-width="18" stroke-linecap="round" opacity="0.72"/>
    <path d="M248 84C322 84 382 144 382 218C382 259 365 296 337 323" stroke="#FFF9D8" stroke-width="18" stroke-linecap="round" opacity="0.52"/>
    <circle cx="248" cy="210" r="118" fill="#FFF9D8" fill-opacity="0.16"/>
  </g>
</svg>
