<svg width="20" height="20" viewBox="0 0 64 64" fill="none" xmlns="http://www.w3.org/2000/svg">
  <!-- shadow -->
  <ellipse cx="32" cy="55" rx="12" ry="4" fill="#DCCBFF"/>

  <!-- pin -->
  <path
    d="M32 6C20.95 6 12 14.95 12 26C12 41 32 54 32 54C32 54 52 41 52 26C52 14.95 43.05 6 32 6Z"
    fill="#B794F6"
  />

  <!-- heart -->
  <path
    d="M32 38C31.3 38 30.7 37.7 30.2 37.3C24.2 31.9 20 28.1 20 23.4C20 19.6 22.9 16.7 26.7 16.7C28.9 16.7 31 17.7 32 19.4C33 17.7 35.1 16.7 37.3 16.7C41.1 16.7 44 19.6 44 23.4C44 28.1 39.8 31.9 33.8 37.3C33.3 37.7 32.7 38 32 38Z"
    fill="white"
  />
</svg>
